<svg xmlns="http://www.w3.org/2000/svg" width="512" height="512" fill="none" viewBox="0 0 512 512"><path fill="url(#paint0_linear)" fill-rule="evenodd" d="M319.769 29.3048C330.434 22.9062 344.001 30.588 344.001 43.0247V68.8984H360C368.837 68.8984 376 76.0619 376 84.8984V116.898H432C440.837 116.898 448 124.062 448 132.898V180.898C448 189.735 440.837 196.898 432 196.898H414.94L409.136 237.525C410.239 237.99 411.237 238.702 412.045 239.622C413.564 241.353 414.263 243.655 413.963 245.939L391.932 413.939C391.414 417.893 388.063 420.858 384.082 420.898L376.902 471.162C375.776 479.045 369.025 484.899 361.063 484.899H150.967C142.981 484.899 136.217 479.011 135.119 471.101L128.146 420.898H128C124.019 420.898 120.643 417.971 120.08 414.03L96.0805 246.03C95.7525 243.734 96.4369 241.409 97.9564 239.657C99.2086 238.213 100.926 237.276 102.79 236.99L97.0625 196.898H80C71.1634 196.898 64 189.735 64 180.898V132.898C64 124.062 71.1634 116.898 80 116.898H136V84.8984C136 76.0619 143.163 68.8984 152 68.8984H253.78L319.769 29.3048ZM118.939 236.898H393.063L398.777 196.898H113.225L118.939 236.898ZM144.3 420.898L150.967 468.899H361.063L367.92 420.898H144.3ZM328.001 43.0247V68.8984H284.878L328.001 43.0247ZM360 116.898V84.8984H152V116.898H360ZM144 132.898H80V180.898H104.008H407.988H432V132.898H368H144ZM134.938 404.898L113.224 252.898H396.914L376.981 404.898H134.938ZM243.682 288.055C232.579 293.913 224 307.474 224 324.898C224 344.019 234.331 358.488 246.991 363.231L248.381 362.039C253.217 357.894 256 351.843 256 345.474V342.296C256 337.944 254.098 333.809 250.794 330.976C243.943 325.104 240 316.532 240 307.508V304.331C240 298.632 241.285 293.081 243.682 288.055ZM265.016 286.568L263.619 287.765C258.783 291.91 256 297.962 256 304.331V307.508C256 311.861 257.902 315.996 261.206 318.828C268.057 324.7 272 333.273 272 342.296V345.474C272 351.168 270.716 356.716 268.323 361.74C279.423 355.88 288 342.32 288 324.898C288 305.781 277.673 291.314 265.016 286.568ZM208 324.898C208 295.398 228.187 268.898 256 268.898C283.813 268.898 304 295.398 304 324.898C304 354.399 283.813 380.898 256 380.898C228.187 380.898 208 354.399 208 324.898Z" clip-rule="evenodd"/><defs><linearGradient id="paint0_linear" x1="64" x2="448" y1="60.898" y2="444.898" gradientUnits="userSpaceOnUse"><stop stop-color="#FF003D"/><stop offset="1" stop-color="#3D00EB"/></linearGradient></defs></svg>